<svg data-v-423bf9ae="" xmlns="http://www.w3.org/2000/svg" viewBox="0 0 299 90" class="iconLeft"><!----><!----><!----><g data-v-423bf9ae="" id="1c08d385-0e6b-4224-8c03-6ffb05046bba" fill="white" transform="matrix(6.315789699554443,0,0,6.315789699554443,106.52631378173828,7.168421268463135)"><path d="M2.66 2.57L2.62 3.72L2.62 7.30L2.62 7.30Q2.62 7.88 2.63 8.27L2.63 8.27L2.63 8.27Q2.65 8.67 2.69 9.06L2.69 9.06L2.75 9.79L4.00 9.85L4.28 9.85L4.28 9.85Q5.33 9.85 7.08 9.60L7.08 9.60L7.65 8.53L7.97 8.65L7.97 8.65Q7.80 9.09 7.69 9.59L7.69 9.59L7.69 9.59Q7.63 9.83 7.58 10.06L7.58 10.06L7.58 10.06Q7.53 10.29 7.49 10.53L7.49 10.53L2.06 10.53L0.55 10.57L0.55 10.22L1.36 10.07L1.36 10.07Q1.39 9.98 1.42 9.76L1.42 9.76L1.42 9.76Q1.45 9.54 1.45 9.25L1.45 9.25L1.49 8.09L1.49 3.72L1.38 1.74L0.57 1.60L0.57 1.24L2.06 1.27L3.56 1.24L3.56 1.60L2.75 1.74L2.66 2.57ZM14.41 3.11L14.39 5.61L14.39 7.94L14.41 9.51L14.41 9.51Q14.41 10.06 14.45 10.07L14.45 10.07L15.24 10.22L15.25 10.57L14.54 10.53L13.81 10.53L13.29 10.56L13.30 8.98L13.30 8.98Q12.77 9.87 12.10 10.30L12.10 10.30L12.10 10.30Q11.43 10.74 10.68 10.74L10.68 10.74L10.68 10.74Q9.77 10.74 9.19 10.13L9.19 10.13L9.19 10.13Q8.60 9.52 8.60 8.54L8.60 8.54L8.60 5.95L8.53 3.97L7.64 3.82L7.64 3.47L7.64 3.47Q7.86 3.47 8.05 3.44L8.05 3.44L8.05 3.44Q8.25 3.41 8.55 3.34L8.55 3.34L8.55 3.34Q9.04 3.26 9.46 3.11L9.46 3.11L9.71 3.11L9.65 5.53L9.65 7.49L9.65 7.49Q9.65 8.09 9.73 8.53L9.73 8.53L9.73 8.53Q9.82 8.96 10.01 9.27L10.01 9.27L10.01 9.27Q10.38 9.88 11.18 9.88L11.18 9.88L11.18 9.88Q12.14 9.88 12.74 9.06L12.74 9.06L12.74 9.06Q13.30 8.21 13.30 6.97L13.30 6.97L13.30 5.95L13.24 3.97L12.33 3.82L12.33 3.47L12.33 3.47Q12.55 3.47 12.74 3.44L12.74 3.44L12.74 3.44Q12.94 3.41 13.24 3.34L13.24 3.34L13.24 3.34Q13.74 3.25 14.14 3.11L14.14 3.11L14.41 3.11ZM22.41 5.33L22.41 7.82L22.48 10.07L23.32 10.22L23.32 10.57L21.88 10.53L21.33 10.57L21.33 10.22L21.35 10.07L21.35 6.04L21.35 6.04Q21.35 4.98 20.97 4.47L20.97 4.47L20.97 4.47Q20.59 3.97 19.72 3.97L19.72 3.97L19.72 3.97Q18.80 3.97 18.27 4.71L18.27 4.71L18.27 4.71Q17.74 5.46 17.74 6.68L17.74 6.68L17.74 7.82L17.79 10.07L18.60 10.22L18.60 10.57L17.22 10.53L15.82 10.57L15.82 10.22L16.65 10.07L16.69 7.83L16.69 6.29L16.62 3.93L15.72 3.78L15.72 3.43L15.72 3.43Q15.99 3.43 16.13 3.41L16.13 3.41L16.13 3.41Q16.28 3.40 16.62 3.32L16.62 3.32L16.62 3.32Q17.07 3.25 17.53 3.11L17.53 3.11L17.82 3.11L17.71 4.59L17.71 4.59Q18.29 3.90 18.91 3.50L18.91 3.50L18.91 3.50Q19.54 3.11 20.26 3.11L20.26 3.11L20.26 3.11Q21.21 3.11 21.81 3.72L21.81 3.72L21.81 3.72Q22.41 4.33 22.41 5.33L22.41 5.33ZM28.48 6.64L28.48 6.64L27.79 6.61L27.79 6.61Q27.12 6.61 26.54 6.79L26.54 6.79L26.54 6.79Q25.96 6.96 25.53 7.24L25.53 7.24L25.53 7.24Q25.14 7.53 24.94 7.87L24.94 7.87L24.94 7.87Q24.74 8.21 24.74 8.65L24.74 8.65L24.74 8.65Q24.74 9.13 25.07 9.51L25.07 9.51L25.07 9.51Q25.44 9.88 26.02 9.88L26.02 9.88L26.02 9.88Q27.15 9.88 27.79 9.00L27.79 9.00L27.79 9.00Q28.11 8.54 28.29 7.95L28.29 7.95L28.29 7.95Q28.48 7.35 28.48 6.64ZM28.46 8.79L28.46 8.79L28.46 8.79Q27.83 10.00 27.13 10.37L27.13 10.37L27.13 10.37Q26.43 10.74 25.78 10.74L25.78 10.74L25.78 10.74Q24.81 10.74 24.21 10.15L24.21 10.15L24.21 10.15Q23.60 9.57 23.60 8.78L23.60 8.78L23.60 8.78Q23.60 7.64 24.81 6.84L24.81 6.84L24.81 6.84Q26.01 6.04 27.90 6.04L27.90 6.04L28.54 6.04L28.54 5.58L28.54 5.58Q28.54 4.60 28.13 4.19L28.13 4.19L28.13 4.19Q27.74 3.77 26.90 3.77L26.90 3.77L26.90 3.77Q26.24 3.77 25.63 3.99L25.63 3.99L25.00 4.24L25.03 4.98L24.75 5.08L24.13 3.67L24.13 3.67Q24.43 3.54 25.12 3.32L25.12 3.32L25.12 3.32Q25.81 3.11 27.07 3.11L27.07 3.11L27.07 3.11Q28.11 3.11 28.78 3.61L28.78 3.61L28.78 3.61Q29.45 4.11 29.45 4.96L29.45 4.96L29.45 8.22L29.45 8.22Q29.45 9.01 29.53 9.44L29.53 9.44L29.53 9.44Q29.60 9.70 29.67 9.85L29.67 9.85L29.67 9.85Q29.70 9.94 29.82 10.06L29.82 10.06L30.37 10.22L30.37 10.58L29.64 10.56L29.24 10.54L29.24 10.54Q29.12 10.54 29.01 10.54L29.01 10.54L29.01 10.54Q28.89 10.54 28.74 10.57L28.74 10.57L28.74 10.57Q28.62 10.57 28.55 10.04L28.55 10.04L28.55 10.04Q28.52 9.78 28.51 9.64L28.51 9.64L28.51 9.64Q28.46 9.11 28.46 8.79Z"></path></g><!----><g data-v-423bf9ae="" id="7d232924-354a-4c11-a0bb-63045fc08817" transform="matrix(2.8125,0,0,2.8125,0,1.0090628862380981)" stroke="none" fill="white"><path d="M31 .995v30H1v-30h30m1-1H0v32h32v-32z"></path><path d="M16 7.045L24.955 16 16 24.955 7.045 16 16 7.045m0-1.414L5.631 16 16 26.369 26.369 16 16 5.631z"></path><path d="M16 12.538L19.462 16 16 19.462 12.538 16 16 12.538m0-1.414L11.124 16 16 20.876 20.876 16 16 11.124z"></path></g><!----></svg>